<svg version="1.1" id="Layer_1" xmlns="http://www.w3.org/2000/svg" xmlns:xlink="http://www.w3.org/1999/xlink" x="0px" y="0px"
	 width="100%" viewBox="0 0 1024 1024" enable-background="new 0 0 1024 1024" xml:space="preserve">
<path fill="#0D0C13" opacity="1.000000" stroke="none" 
	d="
M699.000000,1025.000000 
	C466.000000,1025.000000 233.500000,1025.000000 1.000000,1025.000000 
	C1.000000,683.666687 1.000000,342.333344 1.000000,1.000000 
	C342.333344,1.000000 683.666687,1.000000 1025.000000,1.000000 
	C1025.000000,342.333344 1025.000000,683.666687 1025.000000,1025.000000 
	C916.500000,1025.000000 808.000000,1025.000000 699.000000,1025.000000 
M407.350891,453.065887 
	C406.896790,453.153656 406.442688,453.241394 405.206329,453.237427 
	C403.153564,453.552673 401.100830,453.867920 398.245911,454.093170 
	C391.496002,455.408905 384.746124,456.724670 377.185028,457.990540 
	C374.437897,458.633301 371.690796,459.276245 368.943634,459.918823 
	C351.164246,464.077667 350.559753,465.041321 352.419647,483.271820 
	C352.996887,488.929749 355.157013,493.156708 360.796387,494.981415 
	C363.737976,495.933197 364.643524,497.925293 365.119080,500.875946 
	C367.299774,514.405823 371.122894,527.444946 378.139648,539.341858 
	C388.892273,557.572937 404.861176,567.461853 426.829132,569.101440 
	C432.910095,569.097534 439.022980,569.496887 445.066437,569.018738 
	C469.079559,567.119019 485.272125,554.256653 495.135956,532.703186 
	C495.135956,532.703186 495.068268,532.592346 495.589478,531.858704 
	C495.654907,531.565918 495.720306,531.273193 496.079010,530.282288 
	C502.138275,516.414429 503.980438,501.915527 503.176086,486.440460 
	C510.447815,482.158691 517.589355,482.101776 524.544250,487.971130 
	C521.842163,512.125916 527.910522,533.973938 544.600342,551.539307 
	C565.472046,573.505981 591.936096,573.448730 618.352966,565.079712 
	C642.558350,557.411255 653.066833,537.123901 659.123352,513.619080 
	C659.052429,513.089783 658.981567,512.560425 658.999329,511.371368 
	C659.041992,510.930115 659.084595,510.488831 659.705200,509.798279 
	C660.506531,505.994385 661.168579,502.152100 662.200256,498.411774 
	C662.482361,497.388763 663.730713,496.216248 664.778992,495.886902 
	C672.654358,493.412781 675.079529,487.624298 674.824341,480.051727 
	C674.195984,461.405212 678.428284,465.451355 660.036865,460.450867 
	C627.988525,451.737061 595.516663,448.560425 562.687256,455.975372 
	C552.460022,458.285339 542.309143,461.060455 533.348267,468.352936 
	C533.137085,468.479431 532.925903,468.605957 532.109924,468.279480 
	C519.280090,463.190491 506.545349,462.428680 493.458984,468.682892 
	C488.588196,465.880066 483.995880,462.321991 478.798248,460.405792 
	C456.873505,452.322723 434.127808,450.720612 410.331024,452.887177 
	C409.880035,452.971344 409.429016,453.055511 408.500214,453.045380 
	C408.500214,453.045380 408.037842,453.198456 407.350891,453.065887 
M724.161743,412.499573 
	C724.115479,412.326599 724.069275,412.153656 724.251282,411.153137 
	C724.192444,409.448242 724.133545,407.743378 724.260864,405.111969 
	C724.251526,394.627991 724.286926,384.143707 724.221680,373.660065 
	C724.135864,359.871338 718.965454,348.285217 708.278992,339.581299 
	C694.895874,328.680969 678.635071,324.112030 662.176636,319.183655 
	C662.176636,328.347382 662.176636,336.968079 662.176636,345.569916 
	C667.302002,347.465698 672.338013,349.140320 677.224182,351.174530 
	C687.650391,355.515167 696.747070,365.683228 696.067871,378.048370 
	C695.958862,380.032562 696.158691,382.033722 696.039246,384.944580 
	C696.055786,405.964478 696.072327,426.984375 695.920349,448.927765 
	C695.914062,454.756836 696.014099,460.588348 695.880798,466.414520 
	C695.530579,481.722687 702.786560,492.022461 716.570251,498.006378 
	C720.187012,499.576508 723.951599,500.806061 728.149048,502.379730 
	C724.181274,503.798065 720.697144,504.816742 717.399963,506.262085 
	C704.231079,512.034729 696.100159,521.683960 695.912354,536.502014 
	C695.678101,554.981140 695.974792,573.467102 695.840027,592.855896 
	C696.890747,607.078430 692.284119,618.411621 678.987000,625.044189 
	C674.542419,627.261169 669.747131,628.768555 665.259338,630.908875 
	C663.907349,631.553650 662.163574,633.203186 662.114075,634.452454 
	C661.819214,641.893921 661.968262,649.353088 661.968262,657.531982 
	C674.790466,654.432190 686.620422,650.337830 697.827637,644.501587 
	C700.470154,643.125427 702.980042,641.459167 705.427063,639.749084 
	C722.292114,627.963501 726.212952,611.127075 724.121643,591.091370 
	C724.082458,589.413574 724.043274,587.735779 724.223572,585.258179 
	C724.153625,584.160522 724.083679,583.062927 724.152161,581.041138 
	C724.213684,566.403015 724.257996,551.764832 724.342346,537.126892 
	C724.405457,526.173157 726.758972,523.075134 737.515015,520.796204 
	C743.682373,519.489502 749.959473,518.640564 756.221619,517.862671 
	C760.278259,517.358765 762.580811,516.056213 762.244446,511.319824 
	C761.844788,505.692719 761.814087,499.986969 762.265869,494.366974 
	C762.692078,489.065735 760.402771,487.537598 755.534729,486.932220 
	C748.139282,486.012543 740.729187,484.696320 733.544434,482.742767 
	C726.400391,480.800262 724.528015,477.641449 724.393311,470.420319 
	C724.278748,464.276642 724.155212,458.133118 724.216492,451.068970 
	C724.149963,438.384888 724.083435,425.700806 724.161743,412.499573 
M511.933502,765.248474 
	C509.746338,763.514038 507.516632,761.830261 505.379059,760.036743 
	C493.537140,750.100830 481.717621,740.138184 469.476318,729.645264 
	C465.445374,726.012268 461.334808,722.463196 457.398193,718.730713 
	C444.524994,706.525330 431.457886,694.508301 418.970245,681.918030 
	C410.466187,673.344055 404.056152,663.275635 402.096924,650.928772 
	C401.935333,649.910461 400.850800,648.377991 400.005920,648.239502 
	C395.630707,647.522827 391.193939,647.181946 386.848511,646.717468 
	C384.984161,655.630920 388.337250,670.429138 394.505676,681.135498 
	C404.730347,698.882141 419.777466,712.325562 434.949127,726.444519 
	C459.249725,747.398010 483.535187,768.369202 507.889740,789.259766 
	C509.311554,790.479309 511.292786,791.046753 513.683594,791.793457 
	C520.231018,786.735596 526.928650,781.858765 533.291687,776.578674 
	C543.699219,767.942383 553.888977,759.043640 564.741943,749.894104 
	C580.301758,735.594788 596.242065,721.680298 611.258545,706.831543 
	C618.606079,699.565979 624.877869,690.974854 630.477600,682.240601 
	C637.233704,671.702698 640.187683,659.776855 639.062561,646.721069 
	C637.226624,646.845886 635.604370,646.902832 633.994324,647.074524 
	C624.637451,648.072571 624.707275,648.101379 622.192383,656.882935 
	C618.632141,669.314209 610.717285,679.080017 601.705139,687.741089 
	C585.396545,703.414429 568.519531,718.496338 551.234924,734.050171 
	C547.537292,737.101868 543.849609,740.165710 540.140137,743.202881 
	C530.935547,750.739502 521.721008,758.263916 511.933502,765.248474 
M409.181305,233.059235 
	C407.457916,233.023819 405.734558,232.988403 403.233002,232.654510 
	C402.407196,232.573273 401.581360,232.492020 400.168213,232.100128 
	C384.223572,229.956329 371.369049,221.700745 359.179077,210.570358 
	C350.927551,236.017059 355.072449,259.343842 366.464081,281.925018 
	C362.958282,281.925018 359.989624,281.925018 356.540344,281.388702 
	C341.584473,277.886810 329.225952,269.620972 317.090149,259.258545 
	C316.504242,261.620422 315.744476,263.274963 315.742737,264.930298 
	C315.734558,272.737091 315.435333,280.590454 316.155579,288.342133 
	C318.099457,309.263672 325.785736,327.920929 339.442291,344.772675 
	C339.100952,345.168335 338.759583,345.563965 338.329895,345.593201 
	C338.329895,345.593201 337.958344,345.656616 337.230103,345.359070 
	C323.629150,344.857452 312.108398,338.977661 301.337280,330.195618 
	C300.525238,339.649414 302.336517,346.979401 306.434601,353.327057 
	C314.367096,365.614014 326.470581,370.106995 340.311584,370.968506 
	C336.131409,399.272125 344.928894,425.181519 350.562622,451.952332 
	C356.692810,450.276489 362.093018,448.800201 367.759827,447.251038 
	C366.618774,439.344330 365.284882,431.816589 364.488159,424.232391 
	C362.698425,407.194916 357.443024,390.060242 365.952698,372.829895 
	C376.249359,367.437988 386.546021,362.046082 396.259064,356.959778 
	C385.529419,349.704865 374.554871,343.112152 364.545135,335.285522 
	C354.341522,327.307312 347.576202,316.659424 344.983398,303.455811 
	C348.801880,304.030792 351.915009,304.499542 355.782654,305.236603 
	C374.557770,307.826172 392.740326,307.117188 409.970886,296.171356 
	C395.987854,283.471344 384.591217,270.332031 382.849884,251.251862 
	C390.204224,251.844116 397.110199,252.400269 404.797821,253.149261 
	C429.765228,254.310104 454.155853,248.925919 479.776764,246.732162 
	C516.272949,244.186859 550.226013,251.895432 580.929443,272.200195 
	C598.508911,283.825775 613.036865,298.349152 620.194031,318.656403 
	C623.373047,327.676483 624.906006,337.276733 627.381470,347.413696 
	C630.554932,347.863647 634.725220,348.454956 638.838318,349.038147 
	C638.838318,341.483673 639.215637,334.476898 638.765137,327.523743 
	C637.576965,309.186707 631.184448,293.045868 618.677795,279.201599 
	C605.970398,265.135071 590.949097,254.441528 574.207520,245.871750 
	C541.648071,229.205048 507.133514,223.972687 470.110413,227.883499 
	C450.077271,229.689499 430.044098,231.495514 409.181305,233.059235 
M328.845093,455.164185 
	C327.561432,432.081177 326.305328,408.996552 324.917206,385.919830 
	C324.843597,384.695679 323.952637,382.989624 322.937073,382.438354 
	C315.725220,378.523560 308.381653,374.851471 300.310333,370.706818 
	C300.310333,404.919281 300.310333,439.447845 300.026764,474.656738 
	C298.743561,480.427826 294.209503,482.585632 289.228577,483.692902 
	C282.435089,485.203003 275.546997,486.358795 268.649750,487.303040 
	C264.759186,487.835693 263.143066,489.538910 263.277618,493.467133 
	C263.453735,498.608307 263.303711,503.761749 263.251495,508.909454 
	C263.171783,516.767883 263.180420,516.628784 270.863556,517.960876 
	C277.878662,519.177185 284.985535,520.237183 291.772766,522.289429 
	C298.518097,524.329102 300.173279,527.627441 300.135162,534.627625 
	C300.101746,540.768372 300.201263,546.909851 300.069550,553.948730 
	C300.115234,557.616211 300.160950,561.283691 300.076385,565.884583 
	C300.111938,571.264709 300.147491,576.644897 300.009766,582.944458 
	C299.976410,589.264709 300.084656,595.589417 299.883057,601.904297 
	C299.289185,620.503235 307.896271,634.236877 323.705475,642.615356 
	C334.905762,648.551147 347.361298,652.125305 359.289215,656.667725 
	C360.233337,657.027344 361.433289,656.715088 362.918274,656.715088 
	C362.918274,649.138977 363.066681,641.837891 362.775146,634.554321 
	C362.725342,633.310059 361.023956,631.656128 359.691010,631.025635 
	C355.194733,628.899353 350.353760,627.470764 345.950409,625.185974 
	C337.496185,620.799194 331.089752,614.444092 329.286224,604.645630 
	C328.659821,601.242493 328.784851,597.701050 328.703552,593.362244 
	C328.753418,575.048645 328.820374,556.734985 328.847961,538.421387 
	C328.871277,522.945496 321.730652,512.131836 307.553345,505.969788 
	C304.771790,504.760803 301.938812,503.670105 298.309601,502.190582 
	C302.536926,500.487885 305.953613,499.282440 309.224579,497.763306 
	C320.626984,492.467529 327.990540,484.062286 328.788635,471.056122 
	C329.093170,466.093140 328.755829,461.090790 328.845093,455.164185 
z"/>
<path fill="#F0A411" opacity="1.000000" stroke="none" 
	d="
M724.035645,451.989532 
	C724.155212,458.133118 724.278748,464.276642 724.393311,470.420319 
	C724.528015,477.641449 726.400391,480.800262 733.544434,482.742767 
	C740.729187,484.696320 748.139282,486.012543 755.534729,486.932220 
	C760.402771,487.537598 762.692078,489.065735 762.265869,494.366974 
	C761.814087,499.986969 761.844788,505.692719 762.244446,511.319824 
	C762.580811,516.056213 760.278259,517.358765 756.221619,517.862671 
	C749.959473,518.640564 743.682373,519.489502 737.515015,520.796204 
	C726.758972,523.075134 724.405457,526.173157 724.342346,537.126892 
	C724.257996,551.764832 724.213684,566.403015 723.759521,581.382690 
	C717.299805,581.818237 710.529724,579.882019 706.344482,586.259033 
	C703.787476,590.154968 700.156433,591.293152 696.042175,591.950073 
	C695.974792,573.467102 695.678101,554.981140 695.912354,536.502014 
	C696.100159,521.683960 704.231079,512.034729 717.399963,506.262085 
	C720.697144,504.816742 724.181274,503.798065 728.149048,502.379730 
	C723.951599,500.806061 720.187012,499.576508 716.570251,498.006378 
	C702.786560,492.022461 695.530579,481.722687 695.880798,466.414520 
	C696.014099,460.588348 695.914062,454.756836 696.423218,448.468079 
	C701.874634,448.724396 705.370728,446.197723 708.638428,442.935883 
	C712.130859,439.449585 716.625061,439.282867 720.494019,441.343414 
	C722.102783,442.200195 722.222534,445.879181 722.985962,448.285400 
	C723.373901,449.508026 723.688110,450.754089 724.035645,451.989532 
z"/>
<path fill="#4A8CB8" opacity="1.000000" stroke="none" 
	d="
M300.183044,582.025024 
	C300.147491,576.644897 300.111938,571.264709 300.336609,565.071899 
	C300.478577,560.523071 300.360321,556.787048 300.242065,553.050964 
	C300.201263,546.909851 300.101746,540.768372 300.135162,534.627625 
	C300.173279,527.627441 298.518097,524.329102 291.772766,522.289429 
	C284.985535,520.237183 277.878662,519.177185 270.863556,517.960876 
	C263.180420,516.628784 263.171783,516.767883 263.251495,508.909454 
	C263.303711,503.761749 263.453735,498.608307 263.277618,493.467133 
	C263.143066,489.538910 264.759186,487.835693 268.649750,487.303040 
	C275.546997,486.358795 282.435089,485.203003 289.228577,483.692902 
	C294.209503,482.585632 298.743561,480.427826 300.495178,474.127594 
	C301.319824,471.884308 301.969177,470.172791 301.984680,468.455566 
	C302.084839,457.354218 302.036072,446.251648 302.064972,435.149536 
	C302.069458,433.422241 302.221832,431.695343 302.305817,429.968262 
	C302.843475,429.782776 303.381104,429.597290 303.918762,429.411804 
	C307.153839,435.073090 310.305359,440.784668 313.667938,446.369202 
	C314.899750,448.414978 316.273865,450.778687 318.216492,451.901917 
	C321.445496,453.768890 325.185944,454.751404 328.710999,456.106384 
	C328.755829,461.090790 329.093170,466.093140 328.788635,471.056122 
	C327.990540,484.062286 320.626984,492.467529 309.224579,497.763306 
	C305.953613,499.282440 302.536926,500.487885 298.309601,502.190582 
	C301.938812,503.670105 304.771790,504.760803 307.553345,505.969788 
	C321.730652,512.131836 328.871277,522.945496 328.847961,538.421387 
	C328.820374,556.734985 328.753418,575.048645 328.240265,593.689819 
	C323.488617,592.756775 320.198273,590.434814 317.979065,586.324158 
	C317.089783,584.676880 314.818848,582.818726 313.118378,582.760498 
	C309.296844,582.629395 305.438751,583.563843 301.159393,584.121399 
	C301.138245,584.076050 300.660645,583.050537 300.183044,582.025024 
z"/>
<path fill="#9CD2E1" opacity="1.000000" stroke="none" 
	d="
M471.002777,228.013397 
	C507.133514,223.972687 541.648071,229.205048 574.207520,245.871750 
	C590.949097,254.441528 605.970398,265.135071 618.677795,279.201599 
	C631.184448,293.045868 637.576965,309.186707 638.765137,327.523743 
	C639.215637,334.476898 638.838318,341.483673 638.838318,349.038147 
	C634.725220,348.454956 630.554932,347.863647 627.381470,347.413696 
	C624.906006,337.276733 623.373047,327.676483 620.194031,318.656403 
	C613.036865,298.349152 598.508911,283.825775 580.929443,272.200195 
	C550.226013,251.895432 516.272949,244.186859 479.312439,246.273926 
	C476.850311,244.474640 474.785126,243.221954 472.875275,241.765533 
	C471.254028,240.529190 469.471313,239.252426 468.507874,237.566238 
	C468.234863,237.088501 470.510498,235.035110 471.752197,233.845062 
	C472.979858,232.668442 474.377930,231.669632 476.185638,230.198669 
	C473.906677,229.237793 472.454742,228.625595 471.002777,228.013397 
z"/>
<path fill="#70B1CD" opacity="1.000000" stroke="none" 
	d="
M339.477600,343.989899 
	C325.785736,327.920929 318.099457,309.263672 316.155579,288.342133 
	C315.435333,280.590454 315.734558,272.737091 315.742737,264.930298 
	C315.744476,263.274963 316.504242,261.620422 317.090149,259.258545 
	C329.225952,269.620972 341.584473,277.886810 356.795898,282.045837 
	C357.401642,283.955658 357.661224,285.242615 358.118652,286.454895 
	C359.667084,290.558319 361.699585,294.543274 362.640717,298.775055 
	C362.947815,300.155853 360.714600,302.413940 359.198242,303.775116 
	C358.230774,304.643585 356.446289,304.601898 355.028107,304.968323 
	C351.915009,304.499542 348.801880,304.030792 344.983398,303.455811 
	C347.576202,316.659424 354.341522,327.307312 364.545135,335.285522 
	C374.554871,343.112152 385.529419,349.704865 396.259064,356.959778 
	C386.546021,362.046082 376.249359,367.437988 365.296448,372.843445 
	C362.373077,371.552490 358.495880,370.610382 358.107117,368.883087 
	C356.007080,359.552948 349.297882,354.984924 341.770660,350.742004 
	C340.081177,349.789703 339.207550,347.389984 337.958344,345.656616 
	C337.958344,345.656616 338.329895,345.593201 338.629608,345.686523 
	C339.112091,345.183197 339.294830,344.586548 339.477600,343.989899 
z"/>
<path fill="#83BDD3" opacity="1.000000" stroke="none" 
	d="
M355.405396,305.102478 
	C356.446289,304.601898 358.230774,304.643585 359.198242,303.775116 
	C360.714600,302.413940 362.947815,300.155853 362.640717,298.775055 
	C361.699585,294.543274 359.667084,290.558319 358.118652,286.454895 
	C357.661224,285.242615 357.401642,283.955658 357.036194,282.313965 
	C359.989624,281.925018 362.958282,281.925018 366.464081,281.925018 
	C355.072449,259.343842 350.927551,236.017059 359.179077,210.570358 
	C371.369049,221.700745 384.223572,229.956329 400.668335,232.524139 
	C402.116028,232.949753 403.063599,232.951370 404.011169,232.952988 
	C405.734558,232.988403 407.457916,233.023819 409.593689,233.565323 
	C408.115234,240.242111 406.225616,246.413177 404.325714,252.581070 
	C404.281586,252.724380 404.121948,252.832092 404.016174,252.956421 
	C397.110199,252.400269 390.204224,251.844116 382.849884,251.251862 
	C384.591217,270.332031 395.987854,283.471344 409.970886,296.171356 
	C392.740326,307.117188 374.557770,307.826172 355.405396,305.102478 
z"/>
<path fill="#F0A411" opacity="1.000000" stroke="none" 
	d="
M658.899353,513.967163 
	C653.066833,537.123901 642.558350,557.411255 618.352966,565.079712 
	C591.936096,573.448730 565.472046,573.505981 544.600342,551.539307 
	C527.910522,533.973938 521.842163,512.125916 524.713379,487.248199 
	C527.493225,480.594330 530.103943,474.663391 532.714661,468.732452 
	C532.925903,468.605957 533.137085,468.479431 533.855347,468.598328 
	C535.920959,473.733490 533.957336,477.376282 530.734619,480.998749 
	C529.363281,482.540131 528.816589,485.315918 528.971924,487.452362 
	C529.028931,488.235565 532.275696,488.638672 533.930481,489.483307 
	C537.863037,491.490570 538.694153,487.164276 541.070618,486.508789 
	C540.323669,490.953888 539.037598,495.008209 539.029419,499.065063 
	C539.007507,509.948853 542.800171,519.868896 547.788208,529.392639 
	C555.572693,544.255371 567.513977,552.395935 584.501709,553.866699 
	C611.167358,556.175354 628.302368,547.628967 639.115295,524.024048 
	C643.120789,515.279846 644.583801,505.370972 647.529541,496.073792 
	C649.013733,497.280151 650.322937,498.290466 651.307129,499.553955 
	C653.987305,502.994629 656.530029,506.542297 659.127197,510.047577 
	C659.084595,510.488831 659.041992,510.930115 658.800293,511.869141 
	C658.700562,512.900330 658.799927,513.433716 658.899353,513.967163 
z"/>
<path fill="#F4B212" opacity="1.000000" stroke="none" 
	d="
M541.114197,486.119171 
	C538.694153,487.164276 537.863037,491.490570 533.930481,489.483307 
	C532.275696,488.638672 529.028931,488.235565 528.971924,487.452362 
	C528.816589,485.315918 529.363281,482.540131 530.734619,480.998749 
	C533.957336,477.376282 535.920959,473.733490 534.210876,468.498291 
	C542.309143,461.060455 552.460022,458.285339 562.687256,455.975372 
	C595.516663,448.560425 627.988525,451.737061 660.036865,460.450867 
	C678.428284,465.451355 674.195984,461.405212 674.824341,480.051727 
	C675.079529,487.624298 672.654358,493.412781 664.778992,495.886902 
	C663.730713,496.216248 662.482361,497.388763 662.200256,498.411774 
	C661.168579,502.152100 660.506531,505.994385 659.416260,509.922913 
	C656.530029,506.542297 653.987305,502.994629 651.307129,499.553955 
	C650.322937,498.290466 649.013733,497.280151 647.456360,495.677551 
	C647.091187,494.129303 647.122437,493.057922 647.246521,491.875610 
	C647.445740,491.463196 647.368225,491.212402 646.999634,490.646912 
	C645.638000,481.056976 639.625549,475.746704 631.429932,473.168793 
	C605.915771,465.143494 580.309448,465.468811 555.196960,474.644806 
	C550.139038,476.492920 546.227844,481.479340 541.625977,485.178772 
	C541.268066,485.579834 541.139160,485.852600 541.065063,486.126678 
	C541.052979,486.096344 541.114197,486.119171 541.114197,486.119171 
z"/>
<path fill="#66AAC9" opacity="1.000000" stroke="none" 
	d="
M337.594238,345.507843 
	C339.207550,347.389984 340.081177,349.789703 341.770660,350.742004 
	C349.297882,354.984924 356.007080,359.552948 358.107117,368.883087 
	C358.495880,370.610382 362.373077,371.552490 365.012268,373.020203 
	C357.443024,390.060242 362.698425,407.194916 364.488159,424.232391 
	C365.284882,431.816589 366.618774,439.344330 367.759827,447.251038 
	C362.093018,448.800201 356.692810,450.276489 350.562622,451.952332 
	C344.928894,425.181519 336.131409,399.272125 340.311584,370.968506 
	C326.470581,370.106995 314.367096,365.614014 306.434601,353.327057 
	C302.336517,346.979401 300.525238,339.649414 301.337280,330.195618 
	C312.108398,338.977661 323.629150,344.857452 337.594238,345.507843 
z"/>
<path fill="#70B1CD" opacity="1.000000" stroke="none" 
	d="
M426.009277,568.917786 
	C404.861176,567.461853 388.892273,557.572937 378.139648,539.341858 
	C371.122894,527.444946 367.299774,514.405823 365.119080,500.875946 
	C364.643524,497.925293 363.737976,495.933197 360.796387,494.981415 
	C355.157013,493.156708 352.996887,488.929749 352.419647,483.271820 
	C350.559753,465.041321 351.164246,464.077667 368.943634,459.918823 
	C371.690796,459.276245 374.437897,458.633301 377.890991,458.237000 
	C386.637909,460.083466 389.663513,465.633026 386.996521,473.597900 
	C386.652313,474.625885 387.134583,475.930573 387.065247,477.405945 
	C381.694885,481.939392 379.839508,487.589569 379.939697,494.081879 
	C380.112976,505.309357 383.474731,515.676208 388.389221,525.634766 
	C395.755371,540.561218 406.925812,550.614075 423.936371,553.536743 
	C424.403748,553.686646 424.751129,553.666260 425.423340,553.597656 
	C426.160736,553.685425 426.573273,553.821411 427.246277,554.182495 
	C428.394287,554.586426 429.281799,554.765259 430.586365,554.942322 
	C432.668030,555.002197 434.332672,555.063782 435.963257,555.520325 
	C435.799713,556.559692 435.590240,557.199585 435.553009,557.849304 
	C435.201385,563.988708 433.478516,568.923828 426.009277,568.917786 
z"/>
<path fill="#FBCA0F" opacity="1.000000" stroke="none" 
	d="
M696.215698,384.027039 
	C696.158691,382.033722 695.958862,380.032562 696.067871,378.048370 
	C696.747070,365.683228 687.650391,355.515167 677.224182,351.174530 
	C672.338013,349.140320 667.302002,347.465698 662.176636,345.569916 
	C662.176636,336.968079 662.176636,328.347382 662.176636,319.183655 
	C678.635071,324.112030 694.895874,328.680969 708.278992,339.581299 
	C718.965454,348.285217 724.135864,359.871338 724.221680,373.660065 
	C724.286926,384.143707 724.251526,394.627991 723.935242,405.326172 
	C721.575562,401.529510 719.018921,399.480194 714.148499,401.652802 
	C708.850220,404.016205 703.254333,405.712341 697.002869,407.984924 
	C697.002869,404.685577 697.069763,402.718109 696.990234,400.756592 
	C696.764038,395.178772 696.478149,389.603394 696.215698,384.027039 
z"/>
<path fill="#CB5719" opacity="1.000000" stroke="none" 
	d="
M551.879822,733.825195 
	C568.519531,718.496338 585.396545,703.414429 601.705139,687.741089 
	C610.717285,679.080017 618.632141,669.314209 622.192383,656.882935 
	C624.707275,648.101379 624.637451,648.072571 633.994324,647.074524 
	C635.604370,646.902832 637.226624,646.845886 639.062561,646.721069 
	C640.187683,659.776855 637.233704,671.702698 630.477600,682.240601 
	C624.877869,690.974854 618.606079,699.565979 611.258545,706.831543 
	C596.242065,721.680298 580.301758,735.594788 564.215576,749.796875 
	C561.494446,744.457336 558.578552,739.820862 553.549561,736.747131 
	C552.710938,736.234619 552.422485,734.821960 551.879822,733.825195 
z"/>
<path fill="#E76C0F" opacity="1.000000" stroke="none" 
	d="
M695.941101,592.402954 
	C700.156433,591.293152 703.787476,590.154968 706.344482,586.259033 
	C710.529724,579.882019 717.299805,581.818237 723.690308,581.844727 
	C724.083679,583.062927 724.153625,584.160522 723.899536,585.935059 
	C723.711182,588.380554 723.846802,590.149109 723.982422,591.917664 
	C726.212952,611.127075 722.292114,627.963501 705.427063,639.749084 
	C702.980042,641.459167 700.470154,643.125427 697.827637,644.501587 
	C686.620422,650.337830 674.790466,654.432190 661.968262,657.531982 
	C661.968262,649.353088 661.819214,641.893921 662.114075,634.452454 
	C662.163574,633.203186 663.907349,631.553650 665.259338,630.908875 
	C669.747131,628.768555 674.542419,627.261169 678.987000,625.044189 
	C692.284119,618.411621 696.890747,607.078430 695.941101,592.402954 
z"/>
<path fill="#3F7BAB" opacity="1.000000" stroke="none" 
	d="
M300.096405,582.484741 
	C300.660645,583.050537 301.138245,584.076050 301.159393,584.121399 
	C305.438751,583.563843 309.296844,582.629395 313.118378,582.760498 
	C314.818848,582.818726 317.089783,584.676880 317.979065,586.324158 
	C320.198273,590.434814 323.488617,592.756775 328.171814,594.120117 
	C328.784851,597.701050 328.659821,601.242493 329.286224,604.645630 
	C331.089752,614.444092 337.496185,620.799194 345.950409,625.185974 
	C350.353760,627.470764 355.194733,628.899353 359.691010,631.025635 
	C361.023956,631.656128 362.725342,633.310059 362.775146,634.554321 
	C363.066681,641.837891 362.918274,649.138977 362.918274,656.715088 
	C361.433289,656.715088 360.233337,657.027344 359.289215,656.667725 
	C347.361298,652.125305 334.905762,648.551147 323.705475,642.615356 
	C307.896271,634.236877 299.289185,620.503235 299.883057,601.904297 
	C300.084656,595.589417 299.976410,589.264709 300.096405,582.484741 
z"/>
<path fill="#4A8CB8" opacity="1.000000" stroke="none" 
	d="
M434.639435,725.926880 
	C419.777466,712.325562 404.730347,698.882141 394.505676,681.135498 
	C388.337250,670.429138 384.984161,655.630920 386.848511,646.717468 
	C391.193939,647.181946 395.630707,647.522827 400.005920,648.239502 
	C400.850800,648.377991 401.935333,649.910461 402.096924,650.928772 
	C404.056152,663.275635 410.466187,673.344055 418.970245,681.918030 
	C431.457886,694.508301 444.524994,706.525330 457.398193,718.730713 
	C461.334808,722.463196 465.445374,726.012268 469.342163,730.111511 
	C466.903534,730.741882 464.494751,730.533020 462.314850,731.142639 
	C456.620148,732.735413 451.975342,731.126587 447.588776,727.494507 
	C445.971283,726.155212 443.845947,724.883240 441.846588,724.693420 
	C439.504364,724.471008 437.046906,725.462097 434.639435,725.926880 
z"/>
<path fill="#5AA1C6" opacity="1.000000" stroke="none" 
	d="
M328.778046,455.635284 
	C325.185944,454.751404 321.445496,453.768890 318.216492,451.901917 
	C316.273865,450.778687 314.899750,448.414978 313.667938,446.369202 
	C310.305359,440.784668 307.153839,435.073090 303.918762,429.411804 
	C303.381104,429.597290 302.843475,429.782776 302.305817,429.968262 
	C302.221832,431.695343 302.069458,433.422241 302.064972,435.149536 
	C302.036072,446.251648 302.084839,457.354218 301.984680,468.455566 
	C301.969177,470.172791 301.319824,471.884308 300.636963,473.787415 
	C300.310333,439.447845 300.310333,404.919281 300.310333,370.706818 
	C308.381653,374.851471 315.725220,378.523560 322.937073,382.438354 
	C323.952637,382.989624 324.843597,384.695679 324.917206,385.919830 
	C326.305328,408.996552 327.561432,432.081177 328.778046,455.635284 
z"/>
<path fill="#8EC7DA" opacity="1.000000" stroke="none" 
	d="
M502.566223,486.929352 
	C503.980438,501.915527 502.138275,516.414429 495.563232,530.608276 
	C491.446472,530.590210 489.260406,528.912781 488.048187,525.238831 
	C487.366394,523.172424 485.077057,521.636414 483.601349,519.475342 
	C484.194366,517.507690 484.706726,515.928894 485.200226,514.344238 
	C492.790588,489.970612 485.110107,475.855225 460.090759,471.044189 
	C447.652435,468.652374 434.719238,468.834076 422.144958,467.536774 
	C427.312347,463.210907 432.344666,459.199890 437.376984,455.188873 
	C434.781677,454.018707 432.680023,454.097656 430.586090,454.003998 
	C424.059692,453.712006 417.536224,453.354645 411.011597,453.022644 
	C434.127808,450.720612 456.873505,452.322723 478.798248,460.405792 
	C483.995880,462.321991 488.588196,465.880066 493.719238,469.288208 
	C491.651245,480.831268 492.880005,483.269073 502.566223,486.929352 
z"/>
<path fill="#3F7BAB" opacity="1.000000" stroke="none" 
	d="
M434.794281,726.185669 
	C437.046906,725.462097 439.504364,724.471008 441.846588,724.693420 
	C443.845947,724.883240 445.971283,726.155212 447.588776,727.494507 
	C451.975342,731.126587 456.620148,732.735413 462.314850,731.142639 
	C464.494751,730.533020 466.903534,730.741882 469.549225,730.381226 
	C481.717621,740.138184 493.537140,750.100830 505.379059,760.036743 
	C507.516632,761.830261 509.746338,763.514038 512.278198,765.833496 
	C512.753174,774.918213 512.883423,783.417969 513.013672,791.917603 
	C511.292786,791.046753 509.311554,790.479309 507.889740,789.259766 
	C483.535187,768.369202 459.249725,747.398010 434.794281,726.185669 
z"/>
<path fill="#8EC7DA" opacity="1.000000" stroke="none" 
	d="
M404.406982,253.052826 
	C404.121948,252.832092 404.281586,252.724380 404.325714,252.581070 
	C406.225616,246.413177 408.115234,240.242111 410.008545,233.686462 
	C430.044098,231.495514 450.077271,229.689499 470.556580,227.948456 
	C472.454742,228.625595 473.906677,229.237793 476.185638,230.198669 
	C474.377930,231.669632 472.979858,232.668442 471.752197,233.845062 
	C470.510498,235.035110 468.234863,237.088501 468.507874,237.566238 
	C469.471313,239.252426 471.254028,240.529190 472.875275,241.765533 
	C474.785126,243.221954 476.850311,244.474640 478.833221,246.220886 
	C454.155853,248.925919 429.765228,254.310104 404.406982,253.052826 
z"/>
<path fill="#7F4231" opacity="1.000000" stroke="none" 
	d="
M513.348633,791.855591 
	C512.883423,783.417969 512.753174,774.918213 512.566650,766.105835 
	C521.721008,758.263916 530.935547,750.739502 540.140137,743.202881 
	C543.849609,740.165710 547.537292,737.101868 551.557373,733.937683 
	C552.422485,734.821960 552.710938,736.234619 553.549561,736.747131 
	C558.578552,739.820862 561.494446,744.457336 563.929871,749.977661 
	C553.888977,759.043640 543.699219,767.942383 533.291687,776.578674 
	C526.928650,781.858765 520.231018,786.735596 513.348633,791.855591 
z"/>
<path fill="#F4B212" opacity="1.000000" stroke="none" 
	d="
M696.127502,384.485809 
	C696.478149,389.603394 696.764038,395.178772 696.990234,400.756592 
	C697.069763,402.718109 697.002869,404.685577 697.002869,407.984924 
	C703.254333,405.712341 708.850220,404.016205 714.148499,401.652802 
	C719.018921,399.480194 721.575562,401.529510 723.842163,405.789429 
	C724.133545,407.743378 724.192444,409.448242 724.042480,411.685883 
	C723.697266,412.513519 723.758301,412.779541 724.016846,413.016724 
	C724.083435,425.700806 724.149963,438.384888 724.126099,451.529236 
	C723.688110,450.754089 723.373901,449.508026 722.985962,448.285400 
	C722.222534,445.879181 722.102783,442.200195 720.494019,441.343414 
	C716.625061,439.282867 712.130859,439.449585 708.638428,442.935883 
	C705.370728,446.197723 701.874634,448.724396 696.507446,448.006317 
	C696.072327,426.984375 696.055786,405.964478 696.127502,384.485809 
z"/>
<path fill="#83BDD3" opacity="1.000000" stroke="none" 
	d="
M483.511932,519.861450 
	C485.077057,521.636414 487.366394,523.172424 488.048187,525.238831 
	C489.260406,528.912781 491.446472,530.590210 495.416565,530.957397 
	C495.720306,531.273193 495.654907,531.565918 495.362793,532.232300 
	C495.136078,532.605835 495.017029,532.647949 495.017029,532.647949 
	C485.272125,554.256653 469.079559,567.119019 445.066437,569.018738 
	C439.022980,569.496887 432.910095,569.097534 426.419189,569.009644 
	C433.478516,568.923828 435.201385,563.988708 435.553009,557.849304 
	C435.590240,557.199585 435.799713,556.559692 436.376617,555.458252 
	C439.222290,554.590149 441.606598,554.048157 444.021240,553.789917 
	C457.529785,552.344727 468.284485,546.244995 475.587341,534.710632 
	C478.580292,529.983459 480.890930,524.824158 483.511932,519.861450 
z"/>
<path fill="#83BDD3" opacity="1.000000" stroke="none" 
	d="
M410.671326,452.954895 
	C417.536224,453.354645 424.059692,453.712006 430.586090,454.003998 
	C432.680023,454.097656 434.781677,454.018707 437.376984,455.188873 
	C432.344666,459.199890 427.312347,463.210907 421.726593,467.632996 
	C409.310638,469.007446 397.655518,470.747528 387.233978,477.107086 
	C387.134583,475.930573 386.652313,474.625885 386.996521,473.597900 
	C389.663513,465.633026 386.637909,460.083466 378.296570,458.261963 
	C384.746124,456.724670 391.496002,455.408905 398.958435,454.321106 
	C401.776855,454.142426 403.882721,453.735748 405.988586,453.329102 
	C406.442688,453.241394 406.896790,453.153656 407.807861,453.203552 
	C408.264862,453.341248 408.646423,453.356934 408.646423,453.356934 
	C408.646423,453.356934 408.978027,453.139709 408.978027,453.139709 
	C409.429016,453.055511 409.880035,452.971344 410.671326,452.954895 
z"/>
<path fill="#9CD2E1" opacity="1.000000" stroke="none" 
	d="
M502.871155,486.684906 
	C492.880005,483.269073 491.651245,480.831268 493.976990,469.505615 
	C506.545349,462.428680 519.280090,463.190491 532.412292,468.505981 
	C530.103943,474.663391 527.493225,480.594330 524.728821,486.812622 
	C517.589355,482.101776 510.447815,482.158691 502.871155,486.684906 
z"/>
<path fill="#8EC7DA" opacity="1.000000" stroke="none" 
	d="
M405.597473,453.283264 
	C403.882721,453.735748 401.776855,454.142426 399.359528,454.366150 
	C401.100830,453.867920 403.153564,453.552673 405.597473,453.283264 
z"/>
<path fill="#3F7BAB" opacity="1.000000" stroke="none" 
	d="
M300.155823,553.499878 
	C300.360321,556.787048 300.478577,560.523071 300.401733,564.605164 
	C300.160950,561.283691 300.115234,557.616211 300.155823,553.499878 
z"/>
<path fill="#F0A411" opacity="1.000000" stroke="none" 
	d="
M724.052002,591.504517 
	C723.846802,590.149109 723.711182,588.380554 723.789795,586.334961 
	C724.043274,587.735779 724.082458,589.413574 724.052002,591.504517 
z"/>
<path fill="#F4B212" opacity="1.000000" stroke="none" 
	d="
M659.011353,513.793091 
	C658.799927,513.433716 658.700562,512.900330 658.755920,512.198975 
	C658.981567,512.560425 659.052429,513.089783 659.011353,513.793091 
z"/>
<path fill="#8EC7DA" opacity="1.000000" stroke="none" 
	d="
M403.622070,232.803741 
	C403.063599,232.951370 402.116028,232.949753 400.962006,232.679459 
	C401.581360,232.492020 402.407196,232.573273 403.622070,232.803741 
z"/>
<path fill="#66AAC9" opacity="1.000000" stroke="none" 
	d="
M339.459930,344.381287 
	C339.294830,344.586548 339.112091,345.183197 338.673767,345.869751 
	C338.759583,345.563965 339.100952,345.168335 339.459930,344.381287 
z"/>
<path fill="#8EC7DA" opacity="1.000000" stroke="none" 
	d="
M495.076477,532.675537 
	C495.017029,532.647949 495.136078,532.605835 495.102173,532.599121 
	C495.068268,532.592346 495.135956,532.703186 495.076477,532.675537 
z"/>
<path fill="#8EC7DA" opacity="1.000000" stroke="none" 
	d="
M408.739136,453.092529 
	C408.978027,453.139709 408.646423,453.356934 408.646423,453.356934 
	C408.646423,453.356934 408.264862,453.341248 408.151367,453.269836 
	C408.037842,453.198456 408.500214,453.045380 408.739136,453.092529 
z"/>
<path fill="#FBCA0F" opacity="1.000000" stroke="none" 
	d="
M724.089355,412.758148 
	C723.758301,412.779541 723.697266,412.513519 723.928406,412.099670 
	C724.069275,412.153656 724.115479,412.326599 724.089355,412.758148 
z"/>
<path fill="#0F0D13" opacity="1.000000" stroke="none" 
	d="
M647.153687,491.986511 
	C647.122437,493.057922 647.091187,494.129303 647.133118,495.596985 
	C644.583801,505.370972 643.120789,515.279846 639.115295,524.024048 
	C628.302368,547.628967 611.167358,556.175354 584.501709,553.866699 
	C567.513977,552.395935 555.572693,544.255371 547.788208,529.392639 
	C542.800171,519.868896 539.007507,509.948853 539.029419,499.065063 
	C539.037598,495.008209 540.323669,490.953888 541.070618,486.508789 
	C541.114197,486.119171 541.052979,486.096344 541.278198,486.007935 
	C541.748901,485.666840 541.843750,485.366638 541.787964,485.018860 
	C546.227844,481.479340 550.139038,476.492920 555.196960,474.644806 
	C580.309448,465.468811 605.915771,465.143494 631.429932,473.168793 
	C639.625549,475.746704 645.638000,481.056976 646.943420,490.893677 
	C647.047485,491.666077 647.100586,491.826294 647.153687,491.986511 
z"/>
<path fill="#F0A411" opacity="1.000000" stroke="none" 
	d="
M647.246582,491.875610 
	C647.100586,491.826294 647.047485,491.666077 647.050598,491.259094 
	C647.368225,491.212402 647.445740,491.463196 647.246582,491.875610 
z"/>
<path fill="#F0A411" opacity="1.000000" stroke="none" 
	d="
M541.625977,485.178772 
	C541.843750,485.366638 541.748901,485.666840 541.290283,486.038269 
	C541.139160,485.852600 541.268066,485.579834 541.625977,485.178772 
z"/>
<path fill="#0F0D13" opacity="1.000000" stroke="none" 
	d="
M387.065247,477.405945 
	C397.655518,470.747528 409.310638,469.007446 421.591553,467.947815 
	C434.719238,468.834076 447.652435,468.652374 460.090759,471.044189 
	C485.110107,475.855225 492.790588,489.970612 485.200226,514.344238 
	C484.706726,515.928894 484.194366,517.507690 483.601349,519.475342 
	C480.890930,524.824158 478.580292,529.983459 475.587341,534.710632 
	C468.284485,546.244995 457.529785,552.344727 444.021240,553.789917 
	C441.606598,554.048157 439.222290,554.590149 436.410645,555.063232 
	C434.332672,555.063782 432.668030,555.002197 430.406921,554.625366 
	C428.868896,554.192566 427.927338,554.074951 426.985779,553.957336 
	C426.573273,553.821411 426.160736,553.685425 425.118896,553.453857 
	C424.265167,553.361084 424.040741,553.363770 423.816345,553.366516 
	C406.925812,550.614075 395.755371,540.561218 388.389221,525.634766 
	C383.474731,515.676208 380.112976,505.309357 379.939697,494.081879 
	C379.839508,487.589569 381.694885,481.939392 387.065247,477.405945 
z"/>
<path fill="#83BDD3" opacity="1.000000" stroke="none" 
	d="
M427.246277,554.182495 
	C427.927338,554.074951 428.868896,554.192566 429.989899,554.627136 
	C429.281799,554.765259 428.394287,554.586426 427.246277,554.182495 
z"/>
<path fill="#83BDD3" opacity="1.000000" stroke="none" 
	d="
M423.936371,553.536743 
	C424.040741,553.363770 424.265167,553.361084 424.794037,553.502075 
	C424.751129,553.666260 424.403748,553.686646 423.936371,553.536743 
z"/>
</svg>