<svg xmlns="http://www.w3.org/2000/svg" viewBox="0 0 1024 1024">

    <path fill="#F0A411"
        d="M724.036 451.99c.12 6.143.243 12.287.357 18.43.135 7.221 2.007 10.38 9.151 12.323 7.185 1.953 14.595 3.27 21.99 4.19 4.869.605 7.158 2.133 6.732 7.434-.452 5.62-.421 11.326-.022 16.953.337 4.736-1.966 6.039-6.022 6.543-6.263.778-12.54 1.627-18.707 2.933-10.756 2.28-13.11 5.377-13.173 16.33-.084 14.639-.128 29.277-.582 44.257-6.46.435-13.23-1.501-17.416 4.876-2.557 3.896-6.188 5.034-10.302 5.691-.067-18.483-.364-36.969-.13-55.448.188-14.818 8.32-24.467 21.488-30.24 3.297-1.445 6.781-2.464 10.749-3.882-4.197-1.574-7.962-2.803-11.579-4.374-13.783-5.984-21.04-16.283-20.69-31.591.134-5.827.034-11.658.543-17.947 5.452.256 8.948-2.27 12.215-5.532 3.493-3.486 7.987-3.653 11.856-1.593 1.609.857 1.729 4.536 2.492 6.942.388 1.223.702 2.47 1.05 3.705z" />
    <path fill="#4A8CB8"
        d="M300.183 582.025c-.036-5.38-.071-10.76.154-16.953.142-4.549.023-8.285-.095-12.021-.04-6.141-.14-12.283-.107-18.423.038-7-1.617-10.299-8.362-12.339-6.787-2.052-13.894-3.112-20.91-4.328-7.683-1.332-7.691-1.193-7.612-9.052.053-5.147.203-10.3.027-15.442-.135-3.928 1.481-5.631 5.372-6.164 6.897-.944 13.785-2.1 20.579-3.61 4.98-1.107 9.515-3.265 11.266-9.565.825-2.244 1.474-3.955 1.49-5.672.1-11.102.051-22.204.08-33.306.004-1.728.157-3.455.24-5.182l1.614-.556c3.235 5.661 6.386 11.373 9.749 16.957 1.232 2.046 2.606 4.41 4.548 5.533 3.23 1.867 6.97 2.85 10.495 4.204.045 4.985.382 9.987.078 14.95-.798 13.006-8.162 21.412-19.564 26.707-3.271 1.52-6.688 2.725-10.915 4.428 3.629 1.48 6.462 2.57 9.243 3.779 14.178 6.162 21.318 16.975 21.295 32.451-.028 18.314-.095 36.628-.608 55.269-4.751-.933-8.042-3.255-10.26-7.366-.89-1.647-3.161-3.505-4.862-3.564-3.821-.13-7.68.804-11.959 1.361l-.976-2.096z" />
    <path fill="#9CD2E1"
        d="M471.003 228.013c36.13-4.04 70.645 1.192 103.205 17.859 16.741 8.57 31.762 19.263 44.47 33.33 12.506 13.844 18.899 29.985 20.087 48.322.45 6.953.073 13.96.073 21.514l-11.457-1.624c-2.475-10.137-4.008-19.738-7.187-28.758-7.157-20.307-21.685-34.83-39.265-46.456-30.703-20.305-64.656-28.013-101.617-25.926-2.462-1.8-4.527-3.052-6.437-4.508-1.621-1.237-3.404-2.514-4.367-4.2-.273-.477 2.002-2.53 3.244-3.72 1.228-1.178 2.626-2.176 4.434-3.647l-5.183-2.186z" />
    <path fill="#70B1CD"
        d="M339.478 343.99c-13.692-16.07-21.379-34.726-23.322-55.648-.72-7.752-.421-15.605-.413-23.412.001-1.655.761-3.31 1.347-5.671 12.136 10.362 24.494 18.628 39.706 22.787.606 1.91.865 3.197 1.323 4.409 1.548 4.103 3.58 8.088 4.522 12.32.307 1.38-1.926 3.639-3.443 5-.967.869-2.752.827-4.17 1.193l-10.045-1.512c2.593 13.203 9.359 23.851 19.562 31.83 10.01 7.826 20.984 14.419 31.714 21.674-9.713 5.086-20.01 10.478-30.963 15.883-2.923-1.29-6.8-2.233-7.189-3.96-2.1-9.33-8.81-13.898-16.336-18.141-1.69-.952-2.563-3.352-3.813-5.085 0 0 .372-.064.672.03.482-.504.665-1.1.848-1.697z" />
    <path fill="#83BDD3"
        d="M355.405 305.102c1.041-.5 2.826-.458 3.793-1.327 1.517-1.361 3.75-3.62 3.443-5-.941-4.232-2.974-8.217-4.522-12.32-.458-1.212-.717-2.5-1.083-4.141 2.954-.389 5.922-.389 9.428-.389-11.392-22.581-15.536-45.908-7.285-71.355 12.19 11.13 25.045 19.386 41.49 21.954 1.447.426 2.395.427 3.342.429 1.724.035 3.447.07 5.583.612-1.479 6.677-3.368 12.848-5.268 19.016-.044.143-.204.251-.31.375l-21.166-1.704c1.741 19.08 13.138 32.22 27.12 44.92-17.23 10.945-35.412 11.654-54.565 8.93z" />
    <path fill="#F0A411"
        d="M658.9 513.967c-5.833 23.157-16.342 43.444-40.547 51.113-26.417 8.369-52.881 8.426-73.753-13.54-16.69-17.566-22.758-39.414-19.887-64.292 2.78-6.654 5.39-12.585 8.002-18.516.21-.126.422-.253 1.14-.134 2.066 5.135.102 8.778-3.12 12.4-1.372 1.542-1.918 4.318-1.763 6.454.057.784 3.304 1.187 4.958 2.031 3.933 2.008 4.764-2.319 7.14-2.974-.746 4.445-2.032 8.5-2.04 12.556-.022 10.884 3.77 20.804 8.758 30.328 7.785 14.862 19.726 23.003 36.714 24.474 26.665 2.308 43.8-6.238 54.613-29.843 4.006-8.744 5.469-18.653 8.415-27.95 1.484 1.206 2.793 2.216 3.777 3.48 2.68 3.44 5.223 6.988 7.82 10.494-.042.44-.085.882-.327 1.821-.1 1.031 0 1.565.1 2.098z" />
    <path fill="#F4B212"
        d="M541.114 486.12c-2.42 1.044-3.251 5.37-7.184 3.363-1.654-.844-4.901-1.247-4.958-2.03-.155-2.137.391-4.913 1.763-6.454 3.222-3.623 5.186-7.266 3.476-12.5 8.098-7.439 18.249-10.214 28.476-12.524 32.83-7.415 65.302-4.238 97.35 4.476 18.391 5 14.159.954 14.787 19.6.256 7.573-2.17 13.362-10.045 15.836-1.048.33-2.297 1.502-2.579 2.525-1.031 3.74-1.693 7.582-2.784 11.51-2.886-3.38-5.429-6.927-8.109-10.368-.984-1.264-2.293-2.274-3.85-3.876-.366-1.549-.335-2.62-.21-3.802.199-.413.121-.664-.247-1.23-1.362-9.589-7.374-14.9-15.57-17.477-25.514-8.026-51.12-7.7-76.233 1.476-5.058 1.848-8.97 6.834-13.571 10.534-.358.4-.487.674-.56.948-.013-.03.048-.008.048-.008z" />
    <path fill="#66AAC9"
        d="M337.594 345.508c1.614 1.882 2.487 4.282 4.177 5.234 7.527 4.243 14.236 8.81 16.336 18.141.389 1.727 4.266 2.67 6.905 4.137-7.569 17.04-2.314 34.175-.524 51.212.797 7.585 2.13 15.112 3.272 23.019l-17.197 4.701c-5.634-26.77-14.432-52.68-10.251-80.983-13.841-.862-25.945-5.355-33.877-17.642-4.098-6.348-5.91-13.678-5.098-23.131 10.771 8.782 22.292 14.661 36.257 15.312z" />
    <path fill="#70B1CD"
        d="M426.01 568.918c-21.149-1.456-37.118-11.345-47.87-29.576-7.017-11.897-10.84-24.936-13.02-38.466-.476-2.95-1.382-4.943-4.324-5.895-5.639-1.824-7.8-6.051-8.376-11.71-1.86-18.23-1.256-19.193 16.524-23.352 2.747-.643 5.494-1.286 8.947-1.682 8.747 1.846 11.773 7.396 9.106 15.36-.345 1.029.138 2.334.068 3.809-5.37 4.533-7.225 10.184-7.125 16.676.173 11.227 3.535 21.594 8.45 31.553 7.365 14.926 18.536 24.98 35.546 27.902.468.15.815.13 1.487.06.738.088 1.15.224 1.823.585 1.148.404 2.036.583 3.34.76 2.082.06 3.747.122 5.377.578-.163 1.04-.373 1.68-.41 2.33-.352 6.139-2.074 11.074-9.544 11.068z" />
    <path fill="#FBCA0F"
        d="M696.216 384.027c-.057-1.993-.257-3.994-.148-5.979.68-12.365-8.418-22.533-18.844-26.873-4.886-2.035-9.922-3.71-15.047-5.605v-26.386c16.458 4.928 32.719 9.497 46.102 20.397 10.686 8.704 15.857 20.29 15.943 34.08.065 10.483.03 20.967-.287 31.665-2.36-3.796-4.916-5.846-9.787-3.673-5.298 2.363-10.894 4.06-17.145 6.332 0-3.3.067-5.267-.013-7.228-.226-5.578-.512-11.154-.774-16.73z" />
    <path fill="#CB5719"
        d="M551.88 733.825c16.64-15.329 33.517-30.41 49.825-46.084 9.012-8.661 16.927-18.427 20.487-30.858 2.515-8.782 2.445-8.81 11.802-9.808 1.61-.172 3.233-.23 5.069-.354 1.125 13.056-1.83 24.982-8.585 35.52-5.6 8.734-11.872 17.325-19.22 24.59-15.016 14.85-30.956 28.764-47.042 42.966-2.722-5.34-5.637-9.976-10.666-13.05-.84-.512-1.128-1.925-1.67-2.922z" />
    <path fill="#E76C0F"
        d="M695.941 592.403c4.215-1.11 7.846-2.248 10.403-6.144 4.186-6.377 10.956-4.44 17.346-4.414.394 1.218.464 2.316.21 4.09-.189 2.446-.053 4.214.082 5.983 2.231 19.21-1.69 36.046-18.555 47.831-2.447 1.71-4.957 3.376-7.6 4.753-11.207 5.836-23.037 9.93-35.859 13.03 0-8.179-.149-15.638.146-23.08.05-1.249 1.793-2.898 3.145-3.543 4.488-2.14 9.283-3.648 13.728-5.865 13.297-6.632 17.904-17.966 16.954-32.641z" />
    <path fill="#3F7BAB"
        d="M300.096 582.485c.565.566 1.042 1.591 1.063 1.636 4.28-.557 8.138-1.492 11.96-1.36 1.7.058 3.97 1.916 4.86 3.563 2.22 4.11 5.51 6.433 10.193 7.796.613 3.581.488 7.122 1.114 10.526 1.804 9.798 8.21 16.153 16.664 20.54 4.404 2.285 9.245 3.713 13.741 5.84 1.333.63 3.034 2.284 3.084 3.528.292 7.284.143 14.585.143 22.161-1.485 0-2.685.312-3.629-.047-11.928-4.543-24.383-8.117-35.584-14.053-15.809-8.378-24.416-22.112-23.822-40.71.202-6.316.093-12.64.213-19.42z" />
    <path fill="#4A8CB8"
        d="M434.64 725.927c-14.863-13.601-29.91-27.045-40.134-44.792-6.169-10.706-9.522-25.504-7.657-34.418 4.345.465 8.782.806 13.157 1.523.845.138 1.93 1.67 2.09 2.689 1.96 12.347 8.37 22.415 16.874 30.989 12.488 12.59 25.555 24.607 38.428 36.813 3.937 3.732 8.047 7.281 11.944 11.38-2.438.63-4.847.422-7.027 1.032-5.695 1.592-10.34-.016-14.726-3.648-1.618-1.34-3.743-2.612-5.742-2.802-2.343-.222-4.8.77-7.208 1.234z" />
    <path fill="#5AA1C6"
        d="M328.778 455.635c-3.592-.884-7.333-1.866-10.562-3.733-1.942-1.123-3.316-3.487-4.548-5.533-3.363-5.584-6.514-11.296-9.75-16.957l-1.612.556c-.084 1.727-.237 3.454-.241 5.182-.029 11.102.02 22.204-.08 33.306-.016 1.717-.665 3.428-1.348 5.331-.327-34.34-.327-68.868-.327-103.08 8.072 4.144 15.415 7.817 22.627 11.731 1.016.552 1.907 2.258 1.98 3.482 1.388 23.077 2.644 46.161 3.861 69.715z" />
    <path fill="#8EC7DA"
        d="M502.566 486.93c1.414 14.986-.428 29.484-7.003 43.678-4.117-.018-6.303-1.695-7.515-5.37-.682-2.066-2.97-3.602-4.447-5.763.593-1.967 1.106-3.546 1.6-5.13 7.59-24.374-.09-38.49-25.11-43.3-12.439-2.393-25.372-2.21-37.946-3.508 5.167-4.326 10.2-8.337 15.232-12.348-2.595-1.17-4.697-1.091-6.79-1.185-6.527-.292-13.05-.65-19.575-.981 23.116-2.302 45.862-.7 67.786 7.383 5.198 1.916 9.79 5.474 14.921 8.882-2.068 11.543-.839 13.981 8.847 17.641z" />
    <path fill="#3F7BAB"
        d="M434.794 726.186c2.253-.724 4.71-1.715 7.053-1.493 1.999.19 4.124 1.462 5.742 2.802 4.386 3.632 9.031 5.24 14.726 3.648 2.18-.61 4.589-.401 7.234-.762 12.169 9.757 23.988 19.72 35.83 29.656 2.138 1.793 4.367 3.477 6.9 5.796.474 9.085.604 17.585.735 26.085-1.721-.871-3.702-1.439-5.124-2.658a17484.543 17484.543 0 01-73.096-63.074z" />
    <path fill="#8EC7DA"
        d="M404.407 253.053c-.285-.22-.125-.329-.081-.472 1.9-6.168 3.79-12.339 5.683-18.895 20.035-2.19 40.068-3.997 60.548-5.738 1.898.678 3.35 1.29 5.629 2.25-1.808 1.472-3.206 2.47-4.434 3.647-1.242 1.19-3.517 3.244-3.244 3.721.963 1.686 2.746 2.963 4.367 4.2 1.91 1.456 3.975 2.709 5.958 4.455-24.677 2.705-49.068 8.09-74.426 6.832z" />
    <path fill="#7F4231"
        d="M513.349 791.856c-.466-8.438-.596-16.938-.782-25.75 9.154-7.842 18.369-15.366 27.573-22.903 3.71-3.037 7.397-6.101 11.417-9.265.865.884 1.154 2.297 1.993 2.81 5.029 3.073 7.944 7.71 10.38 13.23-10.041 9.066-20.23 17.964-30.638 26.6-6.363 5.28-13.061 10.158-19.943 15.278z" />
    <path fill="#F4B212"
        d="M696.128 384.486c.35 5.117.636 10.693.862 16.27.08 1.962.013 3.93.013 7.229 6.251-2.273 11.847-3.969 17.145-6.332 4.87-2.173 7.428-.123 9.694 4.136.292 1.954.35 3.66.2 5.897-.345.828-.284 1.094-.025 1.33.066 12.685.133 25.369.11 38.513-.439-.775-.753-2.021-1.141-3.244-.763-2.406-.883-6.085-2.492-6.942-3.869-2.06-8.363-1.893-11.856 1.593-3.267 3.262-6.763 5.788-12.13 5.07-.436-21.022-.452-42.042-.38-63.52z" />
    <path fill="#83BDD3"
        d="M483.512 519.861c1.565 1.775 3.854 3.311 4.536 5.378 1.212 3.674 3.398 5.351 7.369 5.718.303.316.238.609-.054 1.275-.227.374-.346.416-.346.416-9.745 21.609-25.937 34.471-49.95 36.37-6.044.479-12.157.08-18.648-.008 7.06-.086 8.782-5.021 9.134-11.16.037-.65.247-1.29.824-2.392 2.845-.868 5.23-1.41 7.644-1.668 13.509-1.445 24.263-7.545 31.566-19.08 2.993-4.727 5.304-9.886 7.925-14.849zM410.671 452.955c6.865.4 13.389.757 19.915 1.049 2.094.094 4.196.015 6.791 1.185a5870.52 5870.52 0 01-15.65 12.444c-12.416 1.374-24.071 3.115-34.493 9.474-.1-1.176-.582-2.481-.237-3.51 2.667-7.964-.36-13.514-8.7-15.335 6.45-1.537 13.199-2.853 20.661-3.94 2.819-.18 4.925-.586 7.03-.993.455-.088.909-.175 1.82-.125.457.137.838.153.838.153l.332-.217a9.099 9.099 0 011.693-.185z" />
    <path fill="#9CD2E1"
        d="M502.871 486.685c-9.991-3.416-11.22-5.854-8.894-17.18 12.568-7.076 25.303-6.315 38.435-.999-2.308 6.157-4.919 12.088-7.683 18.307-7.14-4.711-14.281-4.654-21.858-.128z" />
    <path fill="#8EC7DA" d="M405.597 453.283a38.5 38.5 0 01-6.237 1.083c1.74-.498 3.794-.813 6.237-1.083z" />
    <path fill="#3F7BAB" d="M300.156 553.5c.204 3.287.323 7.023.246 11.105-.241-3.321-.287-6.989-.246-11.105z" />
    <path fill="#F0A411" d="M724.052 591.505a27.841 27.841 0 01-.262-5.17c.253 1.4.292 3.079.262 5.17z" />
    <path fill="#F4B212" d="M659.011 513.793c-.211-.36-.31-.893-.255-1.594.226.361.296.89.255 1.594z" />
    <path fill="#8EC7DA" d="M403.622 232.804c-.558.147-1.506.146-2.66-.125.62-.187 1.445-.106 2.66.125z" />
    <path fill="#66AAC9" d="M339.46 344.381c-.165.206-.348.802-.786 1.489.086-.306.427-.702.786-1.489z" />
    <path fill="#8EC7DA"
        d="M495.076 532.676c-.059-.028.06-.07.026-.077-.034-.007.034.104-.026.077zM408.74 453.093c.238.047-.094.264-.094.264s-.381-.016-.495-.087c-.113-.072.35-.225.588-.177z" />
    <path fill="#FBCA0F" d="M724.09 412.758c-.332.022-.393-.244-.162-.658.141.054.187.227.161.658z" />

    <path fill="#83BDD3"
        d="M427.246 554.182c.681-.107 1.623.01 2.744.445-.708.138-1.596-.04-2.744-.445zM423.936 553.537c.105-.173.33-.176.858-.035-.043.164-.39.185-.858.035z" />
</svg>